<svg xmlns="http://www.w3.org/2000/svg" viewBox="0 0 1920 1080"><g fill="none" stroke-width="2"><path stroke="gray" d="M1124.59 252.12q-.56-46.01-1.85-92.35c-.09-3.48-.5-6.72-1.03-10.09q-.08-.51-.48-.84c-1.59-1.32-3.92-1.96-5.4-2.64q-86.93-39.93-173.91-79.78-3.57-1.64-5.88-.67-83.36 34.89-166.84 69.5c-4.46 1.85-12 5.3-12 10.75q.04 45.77.06 91.55c0 1.51.58 3.86-.07 5.95q-.15.49-.61.27-36.53-17.44-73.04-34.91c-4.04-1.93-5.97-1.61-9.86.07q-86.22 37.24-172.31 74.79c-2.53 1.1-3.84 2.86-3.86 5.53q-.19 38.57.2 77.16c.11 11.87-1.12 26.23-.65 39.45q.09 2.58-.34 8.24c-.57 7.61 1.88 14.47 2.57 21.91a2.48 2.47 0 0 0 2.24 2.23c4.9.46 8.39 1.44 12.95 3.92q110.88 60.21 166.75 90.12c5.25 2.81 9.43 2.19 14.95-.52q54.94-27 109.9-53.97c4.94-2.42 7-.89 11.17 1.43q68.44 38.1 136.95 76.06c2.23 1.24 8.33 4.92 10.74 3.67l136.54-70.74c5.01-2.59 8.05-2.28 13.22.38 32.52 16.78 64.56 34.69 96.74 52.09 7.13 3.86 9.57 3.83 17.22-.2q4.17-2.2 10.32-5.22 78.89-38.8 157.81-77.57.51-.25.5-.82c-.53-47.35-1.52-94.71-2.46-142.06-.06-2.69.45-7.78-1.07-10.05-1.75-2.63-6.57-5.05-9.41-6.4q-83.88-39.64-167.61-79.59-3.55-1.7-6.33-2.66-.54-.19-1.06.04l-84.05 36.42a.51.5-12.2 0 1-.71-.45" vector-effect="non-scaling-stroke"/><path stroke="#b2c2e1" d="M1436.25 498.46q1.78-1.34 3.16-.11.39.35.34.88-.08.91.21 1.77" vector-effect="non-scaling-stroke"/><path stroke="gray" d="M1439.96 501c1.25 6.9 3.1 12.91.99 19.83-1.56 5.15 9.48 2.51 11.34 1.89a.76.75-23.9 0 0 .42-1.08c-1.41-2.48-2.77-4.58-3.35-7.46-1.63-8.04-5.02-19.92-2.78-27.76a1.69 1.68-86.8 0 0-1.9-2.13q-4.06.7-6.93 3.33-.4.36-.53.89c-.92 4.02-1.29 7.53-3.5 11.21q-3.52 5.86-5.99 12.3a.66.65 40 0 1-1.17.1c-1.46-2.36-1.85-5.4-2.7-7.54q-3.49-8.79-7.58-17.31c-1.35-2.8-6.73-2.79-9.32-2.77a.66.66 0 0 0-.59.95c1.5 3.01 3.72 6.7 3.08 10.21-.84 4.67-2.75 9.35-3.67 13.52q-.76 3.48-1.55 6.97-.12.5-.53.82c-1.36 1.06-6.07 4.87-2.09 6.35q.48.18.97.06c2.24-.56 6.54.39 7.33-1.75q.24-.65-.33-1.05l-3.18-2.21q-1.01-.71-.73-1.91l4.57-19.74q.09-.4.01-.8l-.13-.74a.63.63 0 0 1 .88-.69c2.58 1.17 6 12.57 6.78 14.3q3 6.66 6.21 13.51.33.69 1.63.38c.91-.21 4.92-13.11 5.41-14.76 1.1-3.71 3.15-6.33 5.22-9.46" vector-effect="non-scaling-stroke"/><path stroke="#334261" d="M1439.96 501v-2.9q0-.48-.45-.64-2.24-.78-3.26 1" vector-effect="non-scaling-stroke"/><path stroke="gray" d="M1381.78 486.61q4.09-.94 8 .13c3.33.91 1.8 4.85 4.13 4.76q.58-.03.68-.6.51-2.99-.46-5.86-.16-.5-.69-.54c-5.92-.4-12.4.59-17.55.45q-7.86-.22-10.4-.46c-5.71-.54-5.08 3.82-6.04 7.69a.55.54-21.1 0 0 .98.43c3.5-5.17 5.48-7.83 12.47-6.32q.57.12.55.71-.6 12.72-.45 25.44c.04 3.62-1.12 6.68-2.06 10.12q-.37 1.32 1.01 1.28l10.44-.33a1.05 1.05 0 0 0 .96-1.42c-1.07-2.87-1.84-5.62-1.83-8.85q0-12.97-.27-25.95-.01-.56.53-.68M1260.97 600.25c.49 2.31 9.22.89 10.56.63a2.26 2.26 0 0 1 2.7 2.21q.08 27.35-.03 54.6-.02 5.22-2.38 10.83-.18.42-.59.61-6.59 3.03-13.72 4.36a.75.75 0 0 0-.28 1.36c2.94 1.97 10.05 2.19 13.52 2.19q18.04 0 36.06-.07c2.79-.01 5.29-.44 7.87-1.13q2.29-.61.57-2.24-1.08-1.02-2.57-1.22c-8.92-1.18-14.83-4.76-14.91-14.63q-.22-27.88.41-55.32a1.68 1.67-88.3 0 1 1.73-1.64q6.87.22 13.59.46c5.5.21 4.44-7.07-1.34-6.6q-6.79.55-12.35.01c-2.55-.24-2.01-2.12-2.03-3.92-.16-16.55-2.16-30.84 5.88-43.19q.27-.42.74-.62c9.28-3.97 16.89-.7 20.77 8.46 1.69 4 1.53 9.5 2.65 14.27q.18.78.83.32c3.44-2.47 6-6.19 8.26-8.81q5.25-6.05 9.46-12.93a1.11 1.11 0 0 0-.58-1.63c-8.83-3.02-19.41-6.19-28.86-6.6q-5.67-.24-7.63.28c-12.63 3.36-24.19 5.48-30.35 18.15-4.78 9.82-4.7 17.11-5.22 26.77-.2 3.8-3.83 11.21-7.4 12.93q-2.16 1.04-4.7 1.23a.74.73-8.3 0 0-.66.88M716.822 568.45a14 13.71 89.5 0 0 13.587-14.12 14 13.71 89.5 0 0-13.831-13.88 14 13.71 89.5 0 0-13.587 14.12 14 13.71 89.5 0 0 13.831 13.88" vector-effect="non-scaling-stroke"/><path stroke="#b2c2e1" d="M529.09 579.02q-.16.7-.08 1.44.04.33.13.01l1.72-5.89" vector-effect="non-scaling-stroke"/><path stroke="gray" d="M530.86 574.58c4.05 3.1 4.08 5.65 5.74 9.92q14.77 37.96 29.9 75.79 1.89 4.72 5.03 14.13.18.56.74.73 3.08.97 5.83-.83.46-.3.6-.83 2.03-7.43 3.9-12.16 8.39-21.22 21.04-51.23c4.99-11.85 8.83-24.02 14.72-35.56a.99.99 0 0 1 1.85.27c.87 4.78.74 9.91 1.74 14.54q2.73 12.53 3.94 25.29c1.31 13.73 5.03 28.89 5.84 40.62.74 10.65-6.57 14.83-15.33 17.83-3.08 1.05.32 3.4 1.85 3.52 10.84.85 22.13.45 34.53.25 6.26-.1 15.51.42 23.68-.68a1.9 1.89 14.9 0 0 1.27-.73q1.66-2.21-1.25-2.92c-8.34-2.03-14.61-4.82-16.22-14.05-1.37-7.82-3.28-15.61-4.19-23.39q-1.92-16.39-4.63-32.65c-2.17-13-4.25-27.62-2.7-40.69q.55-4.64 4.93-6.11c1.79-.61 9.09-2.06 7.84-4.96a1.45 1.44 78.8 0 0-1.29-.87q-19.11-.26-37.97.2-1.87.04-3.21.57-.5.2-.68.71c-1.68 4.76-3.11 9.52-5.12 14.09-9.74 22.24-18.35 44.85-27.85 67.31a1.14 1.14 0 0 1-2.1 0c-1.27-2.99-1.83-6.57-2.97-9.46q-13.02-32.89-26.02-65.79c-.74-1.86-1.16-4.45-2.05-6.13a3.09 3.09 0 0 0-2.77-1.63q-20.43.41-40.68-.67c-1.91-.1-3.44.78-2.3 2.91a1.51 1.5-9.4 0 0 1.08.77q9.32 1.43 15.03 8.32c2.82 3.4-.73 11.58-1.02 14.56-2.6 26.01-8.17 51.81-11.85 77.68q-.81 5.68-5.6 13.61c-2.55 4.21-15.12 6.08-15.02 7.85a.78.78 0 0 0 .56.69q5.67 1.6 11.07 1.52c10.63-.16 24.28 1.32 34.37-1.71a.74.73 50.6 0 0 .13-1.35q-1.37-.74-3.13-1.01-10.23-1.61-13.24-10.52c-1.42-4.2-.52-9.87-.65-14.71q-.02-.48.25-.88.59-.9.81-1.93c2.52-12.14 4.06-25.68 5.86-36.64q2.38-14.52 3.94-29.15" vector-effect="non-scaling-stroke"/><path stroke="#334261" d="M530.86 574.58q-2.69.38-1.77 4.44" vector-effect="non-scaling-stroke"/><path stroke="gray" d="m1365.51 593.99-.01-30.04a1.59 1.59 0 0 0-2.79-1.04q-9.11 10.57-18.03 20.78-2.36 2.7-5.96 5.45-5.51 4.2-11.05 9.72a1.32 1.31-66.9 0 0 .9 2.25l12.53.21a.75.75 0 0 1 .74.72q.27 8.07.17 16.1c-.14 11.36.18 22.51-.23 33.76-.49 13.79 5.49 24.34 19.76 26.45 3.66.54 14.69 1.06 17.97-.07 5.46-1.89 15.88-8.13 14.67-15.15a.38.38 0 0 0-.62-.23c-3.51 2.97-9.95 7.66-14.77 6.81-12.04-2.12-13.25-10.77-13.25-22.02q0-22.52-.28-45.51a1.52 1.52 0 0 1 1.64-1.53q11.26.9 22.96-.72c2.25-.31 4.51-1.21 3.22-3.94a1.51 1.51 0 0 0-1.33-.86l-25.57-.45q-.67-.01-.67-.69M1071.81 629.95c8.33 13.36 43.81 14.21 44.51 31.07.26 6.16-4.19 11.77-10.1 13.45-16.57 4.68-29.56-13.21-35.66-25.58q-1.27-2.58-2.84-.28a1.61 1.59-29.1 0 0-.27.92l.63 28.15q.04 1.66 1.6 1.1 7.06-2.57 15.57-1.21c7.65 1.22 19.79 2.79 27.02-.36 7.8-3.41 15.66-10.43 17.62-19.13 5.01-22.3-11.81-30.72-29.27-37.66-6.84-2.71-22.56-8.65-15.44-18.73 4.14-5.85 10.91-7.14 17.71-4.85q13.74 4.62 20.12 18.23c.12.26 1.07 1.16 1.26 1.17a1.05 1.01 2.9 0 0 1.13-.99l.34-22.34a1.14 1.14 0 0 0-1.71-1.01c-3.38 1.95-7.1 3.15-11.15 1.93-14.23-4.28-27.06-4.38-38.46 6.14-8.26 7.63-8.24 20.95-2.61 29.98M769.34 667.42c10.59 9.79 23.59 12.14 37.47 11.59 16.66-.66 29.65-7.53 38.43-21.76q.56-.9.05-1.63-.3-.43-.75-.17c-.92.53-2.12 1.15-2.89 1.89-6.95 6.74-15.31 11.6-25.05 12.32-31.47 2.33-39.1-34.03-30.12-56.44 4.48-11.19 16.51-18.8 28.64-16.78 11.2 1.86 20.05 12.23 25.47 22.22q1.15 2.12 2.93.67.36-.3.45-.75.41-2.14.35-2.84-1.04-11.9-1.69-23.54a1.21 1.2 73.8 0 0-1.79-.99l-6.83 3.81q-.42.23-.9.22c-.64-.01-1.5.05-2.08-.14-15.31-4.95-31.09-5.46-46.09.84q-19.39 8.14-25.98 27.31c-5.18 15.08-1.36 33.31 10.38 44.17M946.91 640.82c1.94 18.34 16.24 31.65 33.33 36.52 5.94 1.69 14.81 2.05 20.48 1.89q19.37-.56 33.76-13.23c8.68-7.63 10.92-15.9 13.46-26.57 1.26-5.31-.33-9.44-1.66-14.94q-2.64-10.87-10.16-17.88-5.85-5.47-7.85-6.64c-13.04-7.68-31.63-11.86-46.28-6.68-5.03 1.77-10.5 3.47-14.64 6.02-14.9 9.17-22.31 23.93-20.44 41.51M1147.22 629.28c-5.95 52.12 66.2 65.84 92.53 31.21 5.38-7.07 6.53-13.78 8.54-21.73 1.27-5.02-1.48-14.45-2.83-18.24-3.69-10.37-13.87-19.67-23.41-23.78q-26.31-11.32-51.26.83c-12.12 5.91-22.01 18-23.57 31.71M892.31 615.47c-2.17-6.48-1.05-16.43-1.06-23.22q0-.77-.77-.73-18.25.92-35.49 2.43-1.32.12-.9 1.91.11.49.59.65c2.67.91 4.74 1.01 6.86 2.9 5.37 4.78 6.31 9.37 6.24 16.93-.17 18.35.77 31.09-.07 44.24-.54 8.43-7.73 10.55-14.21 13.13a.97.97 0 0 0-.22 1.68c2.06 1.52 8.65 1.71 11.22 1.71q15.28 0 30.56-.03 5.49-.01 9.55-1.45a1.16 1.16 0 0 0 .03-2.18c-2.49-.96-12.6-3.86-12.78-5.93q-1.34-16.12-.23-40.76.19-4.28 1.42-5.92c2.4-3.2 9.26-7.37 12.51-8.67 7.65-3.05 17.01 4.44 21.93 9.62a.54.54 0 0 0 .93-.3q1.35-9.34 4.23-17.89c.69-2.05.74-3.65-.37-5.36-3.56-5.52-9.23-7.27-15.62-6-11.56 2.31-18.3 13.8-23.72 23.3a.35.35 0 0 1-.63-.06M693.19 596.56c4.31.79 11.51 5.97 11.92 11.12 1.25 15.49-.12 27.87.34 47.24.08 3.39-.25 6.79-.69 10.02-.76 5.58-8.34 7.25-12.78 8.82a1.02 1.02 0 0 0-.03 1.91c3.21 1.25 6.26 1.2 9.74 1.26q19.72.36 39.43-.33 1.7-.06 1.59-1.76-.04-.7-.49-1.41-.27-.43-.76-.56c-8.81-2.35-13.25-7.1-12.79-16.58 1-20.88.3-42.02.53-62.8a1.55 1.54.2 0 0-1.56-1.56c-11.32.13-23.59.55-34.38 2.56q-.48.09-.65.54-.49 1.34.58 1.53M470.11 697.72c12.83-.39 25.59.55 39.14.63q35.28.21 54.56.13c138.53-.62 277.09-.28 415.63-.19 90.84.06 181.66.47 272.55.04 51.83-.25 103.74-.31 155.57.15 7.45.06 15.13-.61 22.72-.93 7.09-.3 14.88.16 22.35.22q.47.01.79-.34 1.66-1.85.31-3.9-.28-.41-.78-.4c-15.57.48-32.14-.48-46.5-.45q-82.45.17-164.89.13c-242.59-.1-485.18-.16-727.75-.04-12.1.01-28.47 1.04-42.85.3q-.51-.02-.88.33-1.73 1.63-.67 3.9a.74.74 0 0 0 .7.42M1327.91 732.27a23.92 23.92 0 0 0-23.92-23.92 23.92 23.92 0 0 0-23.92 23.92 23.92 23.92 0 0 0 23.92 23.92 23.92 23.92 0 0 0 23.92-23.92M1161.73 898.9q5.19-.6 9.08-.61 43.19-.08 86.46-.03a.86.85 79.7 0 1 .78.55q7.88 20.82 15.7 41.69c3.44 9.18 6.12 15.67 4.33 23.75-2.21 9.91-17.29 12.99-25.64 15.42-1.02.29-2.73.31-3.95.96q-.49.27-.49.82v5.52a.8.8 0 0 0 .8.8q63.4-.02 124.7-.02.61 0 2.56-.4.51-.11.7-.59c.55-1.41 1.55-5.59-.5-6.01-13.39-2.74-24.22-7.28-31.55-18.96-7.19-11.46-12.35-22.17-17.58-35.86q-39.71-103.98-79.44-208.08a1 .98 77.9 0 0-.96-.64q-16.23.63-31.98.01c-1.94-.07-2.67.09-3.4 2.01q-38.32 101.21-76.48 202.47c-9.19 24.37-21.08 53.18-48.15 58.17q-.62.11-.64.74l-.12 6.57q-.01.74.73.74l82.12-.29a2.17 2.17 0 0 0 2.1-1.66c1.68-7.01-11.45-8.82-15.91-12.15q-4.49-3.36-8.06-7.74c-4.12-5.03-3.6-16.04-1.72-21.88q5.73-17.81 12.77-35.17c1.31-3.22 2.22-6.15 3.02-9.49q.14-.57.72-.64M682.93 901.32a.37.37 0 0 1-.66-.05q-25.95-65.08-51.6-130.2-3.3-8.38-5.06-14.13c-4.66-15.22 7.95-25.08 21.62-25.92q.61-.04.63-.65l.2-6.28q.02-.63-.62-.63-57.63.09-115.26.02c-1.19 0-3.07-.45-4.66-.17q-.56.1-.52.66l.39 6.07a1.29 1.29 0 0 0 1.21 1.21c26.79 1.67 36.76 28.29 45.18 49.34q42.23 105.53 84.1 211.29a1.54 1.53 83.8 0 0 1.18.96q3.38.56 6.51-.67.5-.2.69-.71c24.66-66.95 50.73-133.45 76.39-200.03 7.01-18.18 16.59-45.68 32.17-53.86q6.54-3.43 14.72-6.87c2.87-1.22 3.7-3.18 3.06-6.09a1.41 1.4 83.9 0 0-1.37-1.11h-84.42q-.7 0-.65.7l.38 5.92q.05.62.64.74c2.09.45 4.35.62 6.15 1.11 25.5 7.01 24.51 25.6 16.57 46.74q-21.71 57.83-43.61 115.6-1.4 3.7-3.36 7.01M988.48 848.9q-2.68-.86-.09-1.96c16.32-6.92 30.14-11.34 42.95-24.46 12.07-12.36 14.74-28.35 13.55-44.92-1.79-24.98-23.7-42.21-46.85-48.3-11.64-3.06-23.7-5.79-35.79-5.8q-72.47-.03-144.95.11-.48.01-.88.28-1.16.82-.56 2.36.18.48.16.99-.07 2.04 1.11 3.64.33.44.87.53c8.64 1.3 16.02 2.73 22.91 8.75 7.27 6.37 7.58 17.5 7.54 26.38q-.35 90.01-.16 180.02c.04 21.68-9.22 29.36-29.77 32.61q-1.67.26-1.87 1.95l-.67 5.64a.81.8-85 0 0 .75.9q7.34.41 13.89.29c46.45-.81 92.93.39 139.39-.14 11.93-.14 22.31-1.5 33.49-3.71 29.8-5.9 56.66-29.88 57.43-61.99.38-15.67-2.07-28.5-11.19-41.24-11.9-16.62-31.29-23.67-49.99-29.5-3.57-1.11-7.77-1.31-11.27-2.43" vector-effect="non-scaling-stroke"/><path stroke="#334261" d="M1091.37 151.8c-1.75-.38-4.33-2.08-6.05-2.87q-72.2-33.14-144.31-66.45-5.9-2.73-12.72.33c-44.81 20.1-90.31 38.94-135.42 58.38q-1.63.7-2.37 1.12a1.27 1.27 0 0 0 .05 2.24l159.85 79.87q.51.26 1.03 0 66.57-34.18 133.31-68.05c2.06-1.05 4.38-2.73 6.71-3.86q1-.48-.08-.71M782.94 256.06q20.13 9.75 40.4 19.33c7.84 3.7 10.17 5.66 17.73 2.48q47.66-20.03 95.17-39.66a.61.6-44.1 0 0 .02-1.11q-5.37-2.38-10.59-4.88-69.52-33.16-138.8-66.81c-3.94-1.91-7.93-3.41-11.99-4.94a1.84 1.83 10.2 0 0-2.48 1.72l.26 87.72q0 .55.46.85 3.5 2.24 9.82 5.3M967.47 237.23c42.09 19.28 84.11 38.68 126.33 57.66 3.51 1.58 8.13 3.54 11.61 1.52q.44-.26.63-.74 1.41-3.61 1.44-7.92.49-65.75.14-118.46-.01-.44-.45-.39-2.9.36-5.12 1.46-45.43 22.5-112.32 56.1-11 5.53-22.24 9.98a.43.43 0 0 0-.02.79" vector-effect="non-scaling-stroke"/><path stroke="#6d3e19" d="M529.11 290.27q78.25 37.88 155.46 76.4 6.31 3.15 12.72-.13 36.95-18.93 73.91-37.73a1.93 1.92 76.8 0 0 1.06-1.72q-.03-9.04.01-18.01c0-1.38.88-2.81 2.03-3.31q19.89-8.63 40.43-16.87a.54.53-46.2 0 0-.02-1c-6.7-2.37-12.96-4.87-19.71-7.98q-56.62-26.14-113.16-52.46c-4.82-2.25-6.42-2.51-11.15-.53q-63.92 26.75-127.76 53.65c-4.89 2.06-10.39 3.56-14.21 7.27a1.5 1.5 0 0 0 .39 2.42" vector-effect="non-scaling-stroke"/><path stroke="#4b1440" d="M1122.29 307.56q5.77 3.2 11.67 5.95c3.42 1.6 3.77 2.62 3.75 6.26-.03 5.31-.81 11.19.7 16.31q.14.49.59.7 38.69 18.64 76.75 38.53c3.2 1.67 6.69 2.94 10.26 1.33 3.26-1.47 6.52-2.88 9.69-4.52q67.01-34.73 117.38-60.02 5.66-2.85 9.87-5.61.59-.39-.06-.69-72.49-33.54-144.97-67.11c-5.64-2.61-9.98-4.9-16.13-2.43q-25.72 10.3-72.56 31.28c-4.18 1.87-3.64 3.97-3.68 7.92q-.11 12.75-.37 25.54-.01.54-.37.95l-2.92 3.32a1.49 1.49 0 0 0 .4 2.29" vector-effect="non-scaling-stroke"/><path stroke="#706b00" d="M802.04 312.64c3.33 2.13 6.47 4.11 10.17 5.88q73.32 34.99 146.46 70.35c2.24 1.08 2.4 2.73 5.41 1.29q71.12-33.97 142.25-68.18a.65.65 0 0 0-.01-1.17q-75.9-34.85-152.21-70.47-3.2-1.49-5.54-.51-72.96 30.64-145.94 61.21-.95.39-.81 1.27a.49.45 13.5 0 0 .22.33" vector-effect="non-scaling-stroke"/><path stroke="#6d3e19" d="M623.07 357.07q-46.9-22.78-93.75-45.64-7.88-3.84-16.15-6.96a.58.58 0 0 0-.79.56c1.2 38.96-.27 77.99.6 117.01a1.02 1.01 5.9 0 0 .79.96c5.12 1.15 9.02 3.4 13.62 5.87q67.88 36.53 135.88 72.84 9.26 4.94 14.65 7.33c6.55 2.89 4.66-17.99 4.66-20.04q0-.48.23-.91c.76-1.43.28-2.61.27-3.84q-.12-23.82-.07-47.64c.01-5.25.4-14.86 0-22.35-.66-12.35-.89-18.68-1.06-28.1a1.43 1.43 0 0 0-.79-1.26c-19.24-9.48-38.78-18.45-58.09-27.83" vector-effect="non-scaling-stroke"/><path stroke="#4b1440" d="M1234.6 509.44q.01 4.15-.37 8.7-.15 1.82 1.59 1.26 3.69-1.18 8.22-3.41 67.74-33.38 135.23-67.51.39-.2.39-.64l.13-126.89a.75.74-10.4 0 0-1.01-.69q-10 3.76-19.86 8.9-62.13 32.37-124.28 64.86a.91.9-14.3 0 0-.49.82q.31 57.29.45 114.6" vector-effect="non-scaling-stroke"/><path stroke="#706b00" d="M787.67 442.73c-.2 2.34 2.65 4.03 4.39 4.96q33.88 18.21 156.76 83.99c2.02 1.08 9.07 4.72 8.95-.93q-.19-9.76-.03-16.11c.08-3.1-.67-6.98-.11-10.59.43-2.76.05-5.01.09-7.3q.78-41.89-.66-83.75-.11-3.25-.44-5.71-.16-1.21-1.26-1.74-76.73-37.09-153.38-74.07-5.9-2.84-12.68-5.5a1.09 1.08-78.9 0 0-1.48 1q-.46 56.93-.02 114.14 0 .1-.13 1.61M975.16 406.64q-.4 9.33-.15 18.05 1.14 41 2.33 81.99.35 12.02.09 24.7a.75.75 0 0 0 1.04.71q9.54-4 19.17-8.62 55.83-26.8 111.62-53.68c4.16-2 8.29-3.58 12.52-5.16a.67.67 0 0 0 .44-.63q.12-10-.07-19.94-.95-48.97-2.07-97.93c-.07-2.98.41-6.96.25-10.47q-.02-.53-.56-.58-2.59-.24-3.78.35-66.32 33.04-132.6 66.16-3.73 1.87-7.17 3.47a1.83 1.81 79.2 0 0-1.06 1.58" vector-effect="non-scaling-stroke"/><path stroke="#6d3e19" d="M791.95 465.38q-7.9-4.67-15.15-8.49c-2.25-1.18-4.61-2.67-4.57-5.13.51-34.3.09-68.56.52-102.89q.01-.6-.58-.48-3.53.75-6.18 2.11-18.51 9.5-62.52 32.55-.44.23-.94.24-.81 0-1.52.36-.48.24-.49.78-.12 11.38.14 22.76 1.17 51.8 1.98 103.43a.36.36 0 0 0 .49.33q10.79-4.21 21-9.5 34.02-17.6 67.74-34.12a1.11 1.11 0 0 0 .08-1.95" vector-effect="non-scaling-stroke"/><path stroke="#4b1440" d="M1212.52 506.5q.12 0 .26.01.23.01.22-.23-.44-8.51.47-22.03 1.19-17.94-.21-48-.4-8.62.26-38.25.02-.73-.42-2.78-.11-.49-.53-.77c-1.65-1.08-3.4-2.3-5.21-3.16q-33.44-15.78-67.21-32.5a1.57 1.57 0 0 0-2.27 1.31q-.12 2.03-.12 4.65.13 50.75-.02 101.5-.01 1.83-.56 3.61-.15.5-.58.78-3.6 2.39-7.99 2.85a.88.88 0 0 0-.34 1.64c25.6 14.42 51.82 27.76 77.73 41.61 1.98 1.07 3.63 2.51 5.19 4.03a.47.47 0 0 0 .79-.32l.5-13.91q0-.04.04-.04" vector-effect="non-scaling-stroke"/><path stroke="gray" d="M975.97 657.63c3.16 10.07 11.91 17.77 22.72 17.47 12.89-.36 19.99-14.56 21.78-25.6 2.85-17.63 2.54-49.67-21.42-53.42-7.85-1.23-15.47 3.77-19.63 10.01q-2.52 3.78-4.37 11.9c-3.17 13.87-3.6 25.19.92 39.64M1175.24 653.63c3 10.49 7.43 18.99 19.23 21.19 18.02 3.38 26.47-17.84 26.96-31.76.5-14.27.73-34.79-13.01-43.72-12.72-8.27-28.27-.09-31.86 13.7-3.81 14.64-5.43 26.25-1.32 40.59M1319.866 723.85a17.94 17.65-28.5 0 0-24.188-6.951 17.94 17.65-28.5 0 0-7.344 24.071 17.94 17.65-28.5 0 0 24.188 6.951 17.94 17.65-28.5 0 0 7.344-24.071" vector-effect="non-scaling-stroke"/><path stroke="gray" d="M1306.043 739.63a6.89 6.27 68.7 0 0 3.339-8.698 6.89 6.27 68.7 0 0-8.345-4.141 6.89 6.27 68.7 0 0-3.339 8.697 6.89 6.27 68.7 0 0 8.345 4.141M1245 880.8c1.52.01 3.78.36 5.66.37q.65 0 .42-.61-18.42-48.25-36.16-96.74c-1.37-3.76-3.09-7.1-4.89-10.59q-.96-1.87-1.56.15-.69 2.38-1.91 5.8-17.83 50.05-36.08 100.6a.83.82-80.2 0 0 .78 1.11q36.66-.28 73.74-.09M906.21 737.98v105.36a1.45 1.45 0 0 0 1.45 1.45h24.11a51.94 50.38 0 0 0 51.94-50.38v-7.5a51.94 50.38 0 0 0-51.94-50.38h-24.11a1.45 1.45 0 0 0-1.45 1.45M917.29 968.06c7.1 4.52 17.96 5.82 25.67 6.19q5.02.23 12.01-.98c17.73-3.05 30.77-11.31 38.4-27.94q10.78-23.46 3.11-48.28c-8.47-27.43-30.89-38.24-57.98-39.03q-14.37-.41-28.75-.14-1.52.03-1.74.13a2.95 1.83-19.4 0 0-1.78 2.21c.48 7.28.04 15.87.03 21.25q-.04 29.86.21 59.71c.09 11.3.69 20.43 10.82 26.88" vector-effect="non-scaling-stroke"/></g><path fill="#fff" d="M0 0h1920v1080H0V0Zm1124.59 252.12q-.56-46.01-1.85-92.35c-.09-3.48-.5-6.72-1.03-10.09q-.08-.51-.48-.84c-1.59-1.32-3.92-1.96-5.4-2.64q-86.93-39.93-173.91-79.78-3.57-1.64-5.88-.67-83.36 34.89-166.84 69.5c-4.46 1.85-12 5.3-12 10.75q.04 45.77.06 91.55c0 1.51.58 3.86-.07 5.95q-.15.49-.61.27-36.53-17.44-73.04-34.91c-4.04-1.93-5.97-1.61-9.86.07q-86.22 37.24-172.31 74.79c-2.53 1.1-3.84 2.86-3.86 5.53q-.19 38.57.2 77.16c.11 11.87-1.12 26.23-.65 39.45q.09 2.58-.34 8.24c-.57 7.61 1.88 14.47 2.57 21.91a2.48 2.47 0 0 0 2.24 2.23c4.9.46 8.39 1.44 12.95 3.92q110.88 60.21 166.75 90.12c5.25 2.81 9.43 2.19 14.95-.52q54.94-27 109.9-53.97c4.94-2.42 7-.89 11.17 1.43q68.44 38.1 136.95 76.06c2.23 1.24 8.33 4.92 10.74 3.67l136.54-70.74c5.01-2.59 8.05-2.28 13.22.38 32.52 16.78 64.56 34.69 96.74 52.09 7.13 3.86 9.57 3.83 17.22-.2q4.17-2.2 10.32-5.22 78.89-38.8 157.81-77.57.51-.25.5-.82c-.53-47.35-1.52-94.71-2.46-142.06-.06-2.69.45-7.78-1.07-10.05-1.75-2.63-6.57-5.05-9.41-6.4q-83.88-39.64-167.61-79.59-3.55-1.7-6.33-2.66-.54-.19-1.06.04l-84.05 36.42a.51.5-12.2 0 1-.71-.45Zm311.66 246.34q1.78-1.34 3.16-.11.39.35.34.88-.08.91.21 1.77c1.25 6.9 3.1 12.91.99 19.83-1.56 5.15 9.48 2.51 11.34 1.89a.76.75-23.9 0 0 .42-1.08c-1.41-2.48-2.77-4.58-3.35-7.46-1.63-8.04-5.02-19.92-2.78-27.76a1.69 1.68-86.8 0 0-1.9-2.13q-4.06.7-6.93 3.33-.4.36-.53.89c-.92 4.02-1.29 7.53-3.5 11.21q-3.52 5.86-5.99 12.3a.66.65 40 0 1-1.17.1c-1.46-2.36-1.85-5.4-2.7-7.54q-3.49-8.79-7.58-17.31c-1.35-2.8-6.73-2.79-9.32-2.77a.66.66 0 0 0-.59.95c1.5 3.01 3.72 6.7 3.08 10.21-.84 4.67-2.75 9.35-3.67 13.52q-.76 3.48-1.55 6.97-.12.5-.53.82c-1.36 1.06-6.07 4.87-2.09 6.35q.48.18.97.06c2.24-.56 6.54.39 7.33-1.75q.24-.65-.33-1.05l-3.18-2.21q-1.01-.71-.73-1.91l4.57-19.74q.09-.4.01-.8l-.13-.74a.63.63 0 0 1 .88-.69c2.58 1.17 6 12.57 6.78 14.3q3 6.66 6.21 13.51.33.69 1.63.38c.91-.21 4.92-13.11 5.41-14.76 1.1-3.71 3.15-6.33 5.22-9.46Zm-54.47-11.85q4.09-.94 8 .13c3.33.91 1.8 4.85 4.13 4.76q.58-.03.68-.6.51-2.99-.46-5.86-.16-.5-.69-.54c-5.92-.4-12.4.59-17.55.45q-7.86-.22-10.4-.46c-5.71-.54-5.08 3.82-6.04 7.69a.55.54-21.1 0 0 .98.43c3.5-5.17 5.48-7.83 12.47-6.32q.57.12.55.71-.6 12.72-.45 25.44c.04 3.62-1.12 6.68-2.06 10.12q-.37 1.32 1.01 1.28l10.44-.33a1.05 1.05 0 0 0 .96-1.42c-1.07-2.87-1.84-5.62-1.83-8.85q0-12.97-.27-25.95-.01-.56.53-.68Zm-120.81 113.64c.49 2.31 9.22.89 10.56.63a2.26 2.26 0 0 1 2.7 2.21q.08 27.35-.03 54.6-.02 5.22-2.38 10.83-.18.42-.59.61-6.59 3.03-13.72 4.36a.75.75 0 0 0-.28 1.36c2.94 1.97 10.05 2.19 13.52 2.19q18.04 0 36.06-.07c2.79-.01 5.29-.44 7.87-1.13q2.29-.61.57-2.24-1.08-1.02-2.57-1.22c-8.92-1.18-14.83-4.76-14.91-14.63q-.22-27.88.41-55.32a1.68 1.67-88.3 0 1 1.73-1.64q6.87.22 13.59.46c5.5.21 4.44-7.07-1.34-6.6q-6.79.55-12.35.01c-2.55-.24-2.01-2.12-2.03-3.92-.16-16.55-2.16-30.84 5.88-43.19q.27-.42.74-.62c9.28-3.97 16.89-.7 20.77 8.46 1.69 4 1.53 9.5 2.65 14.27q.18.78.83.32c3.44-2.47 6-6.19 8.26-8.81q5.25-6.05 9.46-12.93a1.11 1.11 0 0 0-.58-1.63c-8.83-3.02-19.41-6.19-28.86-6.6q-5.67-.24-7.63.28c-12.63 3.36-24.19 5.48-30.35 18.15-4.78 9.82-4.7 17.11-5.22 26.77-.2 3.8-3.83 11.21-7.4 12.93q-2.16 1.04-4.7 1.23a.74.73-8.3 0 0-.66.88Zm-544.148-31.8a14 13.71 89.5 0 0 13.587-14.12 14 13.71 89.5 0 0-13.831-13.88 14 13.71 89.5 0 0-13.587 14.12 14 13.71 89.5 0 0 13.831 13.88ZM529.09 579.02q-.16.7-.08 1.44.04.33.13.01l1.72-5.89c4.05 3.1 4.08 5.65 5.74 9.92q14.77 37.96 29.9 75.79 1.89 4.72 5.03 14.13.18.56.74.73 3.08.97 5.83-.83.46-.3.6-.83 2.03-7.43 3.9-12.16 8.39-21.22 21.04-51.23c4.99-11.85 8.83-24.02 14.72-35.56a.99.99 0 0 1 1.85.27c.87 4.78.74 9.91 1.74 14.54q2.73 12.53 3.94 25.29c1.31 13.73 5.03 28.89 5.84 40.62.74 10.65-6.57 14.83-15.33 17.83-3.08 1.05.32 3.4 1.85 3.52 10.84.85 22.13.45 34.53.25 6.26-.1 15.51.42 23.68-.68a1.9 1.89 14.9 0 0 1.27-.73q1.66-2.21-1.25-2.92c-8.34-2.03-14.61-4.82-16.22-14.05-1.37-7.82-3.28-15.61-4.19-23.39q-1.92-16.39-4.63-32.65c-2.17-13-4.25-27.62-2.7-40.69q.55-4.64 4.93-6.11c1.79-.61 9.09-2.06 7.84-4.96a1.45 1.44 78.8 0 0-1.29-.87q-19.11-.26-37.97.2-1.87.04-3.21.57-.5.2-.68.71c-1.68 4.76-3.11 9.52-5.12 14.09-9.74 22.24-18.35 44.85-27.85 67.31a1.14 1.14 0 0 1-2.1 0c-1.27-2.99-1.83-6.57-2.97-9.46q-13.02-32.89-26.02-65.79c-.74-1.86-1.16-4.45-2.05-6.13a3.09 3.09 0 0 0-2.77-1.63q-20.43.41-40.68-.67c-1.91-.1-3.44.78-2.3 2.91a1.51 1.5-9.4 0 0 1.08.77q9.32 1.43 15.03 8.32c2.82 3.4-.73 11.58-1.02 14.56-2.6 26.01-8.17 51.81-11.85 77.68q-.81 5.68-5.6 13.61c-2.55 4.21-15.12 6.08-15.02 7.85a.78.78 0 0 0 .56.69q5.67 1.6 11.07 1.52c10.63-.16 24.28 1.32 34.37-1.71a.74.73 50.6 0 0 .13-1.35q-1.37-.74-3.13-1.01-10.23-1.61-13.24-10.52c-1.42-4.2-.52-9.87-.65-14.71q-.02-.48.25-.88.59-.9.81-1.93c2.52-12.14 4.06-25.68 5.86-36.64q2.38-14.52 3.94-29.15Zm836.42 14.97-.01-30.04a1.59 1.59 0 0 0-2.79-1.04q-9.11 10.57-18.03 20.78-2.36 2.7-5.96 5.45-5.51 4.2-11.05 9.72a1.32 1.31-66.9 0 0 .9 2.25l12.53.21a.75.75 0 0 1 .74.72q.27 8.07.17 16.1c-.14 11.36.18 22.51-.23 33.76-.49 13.79 5.49 24.34 19.76 26.45 3.66.54 14.69 1.06 17.97-.07 5.46-1.89 15.88-8.13 14.67-15.15a.38.38 0 0 0-.62-.23c-3.51 2.97-9.95 7.66-14.77 6.81-12.04-2.12-13.25-10.77-13.25-22.02q0-22.52-.28-45.51a1.52 1.52 0 0 1 1.64-1.53q11.26.9 22.96-.72c2.25-.31 4.51-1.21 3.22-3.94a1.51 1.51 0 0 0-1.33-.86l-25.57-.45q-.67-.01-.67-.69Zm-293.7 35.96c8.33 13.36 43.81 14.21 44.51 31.07.26 6.16-4.19 11.77-10.1 13.45-16.57 4.68-29.56-13.21-35.66-25.58q-1.27-2.58-2.84-.28a1.61 1.59-29.1 0 0-.27.92l.63 28.15q.04 1.66 1.6 1.1 7.06-2.57 15.57-1.21c7.65 1.22 19.79 2.79 27.02-.36 7.8-3.41 15.66-10.43 17.62-19.13 5.01-22.3-11.81-30.72-29.27-37.66-6.84-2.71-22.56-8.65-15.44-18.73 4.14-5.85 10.91-7.14 17.71-4.85q13.74 4.62 20.12 18.23c.12.26 1.07 1.16 1.26 1.17a1.05 1.01 2.9 0 0 1.13-.99l.34-22.34a1.14 1.14 0 0 0-1.71-1.01c-3.38 1.95-7.1 3.15-11.15 1.93-14.23-4.28-27.06-4.38-38.46 6.14-8.26 7.63-8.24 20.95-2.61 29.98Zm-302.47 37.47c10.59 9.79 23.59 12.14 37.47 11.59 16.66-.66 29.65-7.53 38.43-21.76q.56-.9.05-1.63-.3-.43-.75-.17c-.92.53-2.12 1.15-2.89 1.89-6.95 6.74-15.31 11.6-25.05 12.32-31.47 2.33-39.1-34.03-30.12-56.44 4.48-11.19 16.51-18.8 28.64-16.78 11.2 1.86 20.05 12.23 25.47 22.22q1.15 2.12 2.93.67.36-.3.45-.75.41-2.14.35-2.84-1.04-11.9-1.69-23.54a1.21 1.2 73.8 0 0-1.79-.99l-6.83 3.81q-.42.23-.9.22c-.64-.01-1.5.05-2.08-.14-15.31-4.95-31.09-5.46-46.09.84q-19.39 8.14-25.98 27.31c-5.18 15.08-1.36 33.31 10.38 44.17Zm177.57-26.6c1.94 18.34 16.24 31.65 33.33 36.52 5.94 1.69 14.81 2.05 20.48 1.89q19.37-.56 33.76-13.23c8.68-7.63 10.92-15.9 13.46-26.57 1.26-5.31-.33-9.44-1.66-14.94q-2.64-10.87-10.16-17.88-5.85-5.47-7.85-6.64c-13.04-7.68-31.63-11.86-46.28-6.68-5.03 1.77-10.5 3.47-14.64 6.02-14.9 9.17-22.31 23.93-20.44 41.51Zm200.31-11.54c-5.95 52.12 66.2 65.84 92.53 31.21 5.38-7.07 6.53-13.78 8.54-21.73 1.27-5.02-1.48-14.45-2.83-18.24-3.69-10.37-13.87-19.67-23.41-23.78q-26.31-11.32-51.26.83c-12.12 5.91-22.01 18-23.57 31.71Zm-254.91-13.81c-2.17-6.48-1.05-16.43-1.06-23.22q0-.77-.77-.73-18.25.92-35.49 2.43-1.32.12-.9 1.91.11.49.59.65c2.67.91 4.74 1.01 6.86 2.9 5.37 4.78 6.31 9.37 6.24 16.93-.17 18.35.77 31.09-.07 44.24-.54 8.43-7.73 10.55-14.21 13.13a.97.97 0 0 0-.22 1.68c2.06 1.52 8.65 1.71 11.22 1.71q15.28 0 30.56-.03 5.49-.01 9.55-1.45a1.16 1.16 0 0 0 .03-2.18c-2.49-.96-12.6-3.86-12.78-5.93q-1.34-16.12-.23-40.76.19-4.28 1.42-5.92c2.4-3.2 9.26-7.37 12.51-8.67 7.65-3.05 17.01 4.44 21.93 9.62a.54.54 0 0 0 .93-.3q1.35-9.34 4.23-17.89c.69-2.05.74-3.65-.37-5.36-3.56-5.52-9.23-7.27-15.62-6-11.56 2.31-18.3 13.8-23.72 23.3a.35.35 0 0 1-.63-.06Zm-199.12-18.91c4.31.79 11.51 5.97 11.92 11.12 1.25 15.49-.12 27.87.34 47.24.08 3.39-.25 6.79-.69 10.02-.76 5.58-8.34 7.25-12.78 8.82a1.02 1.02 0 0 0-.03 1.91c3.21 1.25 6.26 1.2 9.74 1.26q19.72.36 39.43-.33 1.7-.06 1.59-1.76-.04-.7-.49-1.41-.27-.43-.76-.56c-8.81-2.35-13.25-7.1-12.79-16.58 1-20.88.3-42.02.53-62.8a1.55 1.54.2 0 0-1.56-1.56c-11.32.13-23.59.55-34.38 2.56q-.48.09-.65.54-.49 1.34.58 1.53ZM470.11 697.72c12.83-.39 25.59.55 39.14.63q35.28.21 54.56.13c138.53-.62 277.09-.28 415.63-.19 90.84.06 181.66.47 272.55.04 51.83-.25 103.74-.31 155.57.15 7.45.06 15.13-.61 22.72-.93 7.09-.3 14.88.16 22.35.22q.47.01.79-.34 1.66-1.85.31-3.9-.28-.41-.78-.4c-15.57.48-32.14-.48-46.5-.45q-82.45.17-164.89.13c-242.59-.1-485.18-.16-727.75-.04-12.1.01-28.47 1.04-42.85.3q-.51-.02-.88.33-1.73 1.63-.67 3.9a.74.74 0 0 0 .7.42Zm857.8 34.55a23.92 23.92 0 0 0-23.92-23.92 23.92 23.92 0 0 0-23.92 23.92 23.92 23.92 0 0 0 23.92 23.92 23.92 23.92 0 0 0 23.92-23.92ZM1161.73 898.9q5.19-.6 9.08-.61 43.19-.08 86.46-.03a.86.85 79.7 0 1 .78.55q7.88 20.82 15.7 41.69c3.44 9.18 6.12 15.67 4.33 23.75-2.21 9.91-17.29 12.99-25.64 15.42-1.02.29-2.73.31-3.95.96q-.49.27-.49.82v5.52a.8.8 0 0 0 .8.8q63.4-.02 124.7-.02.61 0 2.56-.4.51-.11.7-.59c.55-1.41 1.55-5.59-.5-6.01-13.39-2.74-24.22-7.28-31.55-18.96-7.19-11.46-12.35-22.17-17.58-35.86q-39.71-103.98-79.44-208.08a1 .98 77.9 0 0-.96-.64q-16.23.63-31.98.01c-1.94-.07-2.67.09-3.4 2.01q-38.32 101.21-76.48 202.47c-9.19 24.37-21.08 53.18-48.15 58.17q-.62.11-.64.74l-.12 6.57q-.01.74.73.74l82.12-.29a2.17 2.17 0 0 0 2.1-1.66c1.68-7.01-11.45-8.82-15.91-12.15q-4.49-3.36-8.06-7.74c-4.12-5.03-3.6-16.04-1.72-21.88q5.73-17.81 12.77-35.17c1.31-3.22 2.22-6.15 3.02-9.49q.14-.57.72-.64Zm-478.8 2.42a.37.37 0 0 1-.66-.05q-25.95-65.08-51.6-130.2-3.3-8.38-5.06-14.13c-4.66-15.22 7.95-25.08 21.62-25.92q.61-.04.63-.65l.2-6.28q.02-.63-.62-.63-57.63.09-115.26.02c-1.19 0-3.07-.45-4.66-.17q-.56.1-.52.66l.39 6.07a1.29 1.29 0 0 0 1.21 1.21c26.79 1.67 36.76 28.29 45.18 49.34q42.23 105.53 84.1 211.29a1.54 1.53 83.8 0 0 1.18.96q3.38.56 6.51-.67.5-.2.69-.71c24.66-66.95 50.73-133.45 76.39-200.03 7.01-18.18 16.59-45.68 32.17-53.86q6.54-3.43 14.72-6.87c2.87-1.22 3.7-3.18 3.06-6.09a1.41 1.4 83.9 0 0-1.37-1.11h-84.42q-.7 0-.65.7l.38 5.92q.05.62.64.74c2.09.45 4.35.62 6.15 1.11 25.5 7.01 24.51 25.6 16.57 46.74q-21.71 57.83-43.61 115.6-1.4 3.7-3.36 7.01Zm305.55-52.42q-2.68-.86-.09-1.96c16.32-6.92 30.14-11.34 42.95-24.46 12.07-12.36 14.74-28.35 13.55-44.92-1.79-24.98-23.7-42.21-46.85-48.3-11.64-3.06-23.7-5.79-35.79-5.8q-72.47-.03-144.95.11-.48.01-.88.28-1.16.82-.56 2.36.18.48.16.99-.07 2.04 1.11 3.64.33.44.87.53c8.64 1.3 16.02 2.73 22.91 8.75 7.27 6.37 7.58 17.5 7.54 26.38q-.35 90.01-.16 180.02c.04 21.68-9.22 29.36-29.77 32.61q-1.67.26-1.87 1.95l-.67 5.64a.81.8-85 0 0 .75.9q7.34.41 13.89.29c46.45-.81 92.93.39 139.39-.14 11.93-.14 22.31-1.5 33.49-3.71 29.8-5.9 56.66-29.88 57.43-61.99.38-15.67-2.07-28.5-11.19-41.24-11.9-16.62-31.29-23.67-49.99-29.5-3.57-1.11-7.77-1.31-11.27-2.43Z"/><path d="M1124.59 252.12a.51.5-12.2 0 0 .71.45l84.05-36.42q.52-.23 1.06-.04 2.78.96 6.33 2.66 83.73 39.95 167.61 79.59c2.84 1.35 7.66 3.77 9.41 6.4 1.52 2.27 1.01 7.36 1.07 10.05.94 47.35 1.93 94.71 2.46 142.06q.01.57-.5.82-78.92 38.77-157.81 77.57-6.15 3.02-10.32 5.22c-7.65 4.03-10.09 4.06-17.22.2-32.18-17.4-64.22-35.31-96.74-52.09-5.17-2.66-8.21-2.97-13.22-.38l-136.54 70.74c-2.41 1.25-8.51-2.43-10.74-3.67q-68.51-37.96-136.95-76.06c-4.17-2.32-6.23-3.85-11.17-1.43q-54.96 26.97-109.9 53.97c-5.52 2.71-9.7 3.33-14.95.52q-55.87-29.91-166.75-90.12c-4.56-2.48-8.05-3.46-12.95-3.92a2.48 2.47 0 0 1-2.24-2.23c-.69-7.44-3.14-14.3-2.57-21.91q.43-5.66.34-8.24c-.47-13.22.76-27.58.65-39.45q-.39-38.59-.2-77.16c.02-2.67 1.33-4.43 3.86-5.53q86.09-37.55 172.31-74.79c3.89-1.68 5.82-2 9.86-.07q36.51 17.47 73.04 34.91.46.22.61-.27c.65-2.09.07-4.44.07-5.95q-.02-45.78-.06-91.55c0-5.45 7.54-8.9 12-10.75q83.48-34.61 166.84-69.5 2.31-.97 5.88.67 86.98 39.85 173.91 79.78c1.48.68 3.81 1.32 5.4 2.64q.4.33.48.84c.53 3.37.94 6.61 1.03 10.09q1.29 46.34 1.85 92.35Zm-33.22-100.32c-1.75-.38-4.33-2.08-6.05-2.87q-72.2-33.14-144.31-66.45-5.9-2.73-12.72.33c-44.81 20.1-90.31 38.94-135.42 58.38q-1.63.7-2.37 1.12a1.27 1.27 0 0 0 .05 2.24l159.85 79.87q.51.26 1.03 0 66.57-34.18 133.31-68.05c2.06-1.05 4.38-2.73 6.71-3.86q1-.48-.08-.71ZM782.94 256.06q20.13 9.75 40.4 19.33c7.84 3.7 10.17 5.66 17.73 2.48q47.66-20.03 95.17-39.66a.61.6-44.1 0 0 .02-1.11q-5.37-2.38-10.59-4.88-69.52-33.16-138.8-66.81c-3.94-1.91-7.93-3.41-11.99-4.94a1.84 1.83 10.2 0 0-2.48 1.72l.26 87.72q0 .55.46.85 3.5 2.24 9.82 5.3Zm184.53-18.83c42.09 19.28 84.11 38.68 126.33 57.66 3.51 1.58 8.13 3.54 11.61 1.52q.44-.26.63-.74 1.41-3.61 1.44-7.92.49-65.75.14-118.46-.01-.44-.45-.39-2.9.36-5.12 1.46-45.43 22.5-112.32 56.1-11 5.53-22.24 9.98a.43.43 0 0 0-.02.79Zm-438.36 53.04q78.25 37.88 155.46 76.4 6.31 3.15 12.72-.13 36.95-18.93 73.91-37.73a1.93 1.92 76.8 0 0 1.06-1.72q-.03-9.04.01-18.01c0-1.38.88-2.81 2.03-3.31q19.89-8.63 40.43-16.87a.54.53-46.2 0 0-.02-1c-6.7-2.37-12.96-4.87-19.71-7.98q-56.62-26.14-113.16-52.46c-4.82-2.25-6.42-2.51-11.15-.53q-63.92 26.75-127.76 53.65c-4.89 2.06-10.39 3.56-14.21 7.27a1.5 1.5 0 0 0 .39 2.42Zm593.18 17.29q5.77 3.2 11.67 5.95c3.42 1.6 3.77 2.62 3.75 6.26-.03 5.31-.81 11.19.7 16.31q.14.49.59.7 38.69 18.64 76.75 38.53c3.2 1.67 6.69 2.94 10.26 1.33 3.26-1.47 6.52-2.88 9.69-4.52q67.01-34.73 117.38-60.02 5.66-2.85 9.87-5.61.59-.39-.06-.69-72.49-33.54-144.97-67.11c-5.64-2.61-9.98-4.9-16.13-2.43q-25.72 10.3-72.56 31.28c-4.18 1.87-3.64 3.97-3.68 7.92q-.11 12.75-.37 25.54-.01.54-.37.95l-2.92 3.32a1.49 1.49 0 0 0 .4 2.29Zm-320.25 5.08c3.33 2.13 6.47 4.11 10.17 5.88q73.32 34.99 146.46 70.35c2.24 1.08 2.4 2.73 5.41 1.29q71.12-33.97 142.25-68.18a.65.65 0 0 0-.01-1.17q-75.9-34.85-152.21-70.47-3.2-1.49-5.54-.51-72.96 30.64-145.94 61.21-.95.39-.81 1.27a.49.45 13.5 0 0 .22.33Zm-178.97 44.43q-46.9-22.78-93.75-45.64-7.88-3.84-16.15-6.96a.58.58 0 0 0-.79.56c1.2 38.96-.27 77.99.6 117.01a1.02 1.01 5.9 0 0 .79.96c5.12 1.15 9.02 3.4 13.62 5.87q67.88 36.53 135.88 72.84 9.26 4.94 14.65 7.33c6.55 2.89 4.66-17.99 4.66-20.04q0-.48.23-.91c.76-1.43.28-2.61.27-3.84q-.12-23.82-.07-47.64c.01-5.25.4-14.86 0-22.35-.66-12.35-.89-18.68-1.06-28.1a1.43 1.43 0 0 0-.79-1.26c-19.24-9.48-38.78-18.45-58.09-27.83Zm611.53 152.37q.01 4.15-.37 8.7-.15 1.82 1.59 1.26 3.69-1.18 8.22-3.41 67.74-33.38 135.23-67.51.39-.2.39-.64l.13-126.89a.75.74-10.4 0 0-1.01-.69q-10 3.76-19.86 8.9-62.13 32.37-124.28 64.86a.91.9-14.3 0 0-.49.82q.31 57.29.45 114.6Zm-446.93-66.71c-.2 2.34 2.65 4.03 4.39 4.96q33.88 18.21 156.76 83.99c2.02 1.08 9.07 4.72 8.95-.93q-.19-9.76-.03-16.11c.08-3.1-.67-6.98-.11-10.59.43-2.76.05-5.01.09-7.3q.78-41.89-.66-83.75-.11-3.25-.44-5.71-.16-1.21-1.26-1.74-76.73-37.09-153.38-74.07-5.9-2.84-12.68-5.5a1.09 1.08-78.9 0 0-1.48 1q-.46 56.93-.02 114.14 0 .1-.13 1.61Zm187.49-36.09q-.4 9.33-.15 18.05 1.14 41 2.33 81.99.35 12.02.09 24.7a.75.75 0 0 0 1.04.71q9.54-4 19.17-8.62 55.83-26.8 111.62-53.68c4.16-2 8.29-3.58 12.52-5.16a.67.67 0 0 0 .44-.63q.12-10-.07-19.94-.95-48.97-2.07-97.93c-.07-2.98.41-6.96.25-10.47q-.02-.53-.56-.58-2.59-.24-3.78.35-66.32 33.04-132.6 66.16-3.73 1.87-7.17 3.47a1.83 1.81 79.2 0 0-1.06 1.58Zm-183.21 58.74q-7.9-4.67-15.15-8.49c-2.25-1.18-4.61-2.67-4.57-5.13.51-34.3.09-68.56.52-102.89q.01-.6-.58-.48-3.53.75-6.18 2.11-18.51 9.5-62.52 32.55-.44.23-.94.24-.81 0-1.52.36-.48.24-.49.78-.12 11.38.14 22.76 1.17 51.8 1.98 103.43a.36.36 0 0 0 .49.33q10.79-4.21 21-9.5 34.02-17.6 67.74-34.12a1.11 1.11 0 0 0 .08-1.95Zm420.57 41.12q.12 0 .26.01.23.01.22-.23-.44-8.51.47-22.03 1.19-17.94-.21-48-.4-8.62.26-38.25.02-.73-.42-2.78-.11-.49-.53-.77c-1.65-1.08-3.4-2.3-5.21-3.16q-33.44-15.78-67.21-32.5a1.57 1.57 0 0 0-2.27 1.31q-.12 2.03-.12 4.65.13 50.75-.02 101.5-.01 1.83-.56 3.61-.15.5-.58.78-3.6 2.39-7.99 2.85a.88.88 0 0 0-.34 1.64c25.6 14.42 51.82 27.76 77.73 41.61 1.98 1.07 3.63 2.51 5.19 4.03a.47.47 0 0 0 .79-.32l.5-13.91q0-.04.04-.04Z"/><path fill="#6584c2" d="M1085.32 148.93c1.72.79 4.3 2.49 6.05 2.87q1.08.23.08.71c-2.33 1.13-4.65 2.81-6.71 3.86q-66.74 33.87-133.31 68.05-.52.26-1.03 0l-159.85-79.87a1.27 1.27 0 0 1-.05-2.24q.74-.42 2.37-1.12c45.11-19.44 90.61-38.28 135.42-58.38q6.82-3.06 12.72-.33 72.11 33.31 144.31 66.45ZM782.94 256.06q-6.32-3.06-9.82-5.3-.46-.3-.46-.85l-.26-87.72a1.84 1.83 10.2 0 1 2.48-1.72c4.06 1.53 8.05 3.03 11.99 4.94q69.28 33.65 138.8 66.81 5.22 2.5 10.59 4.88a.61.6-44.1 0 1-.02 1.11q-47.51 19.63-95.17 39.66c-7.56 3.18-9.89 1.22-17.73-2.48q-20.27-9.58-40.4-19.33ZM1093.8 294.89c-42.22-18.98-84.24-38.38-126.33-57.66a.43.43 0 0 1 .02-.79q11.24-4.45 22.24-9.98 66.89-33.6 112.32-56.1 2.22-1.1 5.12-1.46.44-.05.45.39.35 52.71-.14 118.46-.03 4.31-1.44 7.92-.19.48-.63.74c-3.48 2.02-8.1.06-11.61-1.52Z"/><path fill="#d97b31" d="M529.11 290.27a1.5 1.5 0 0 1-.39-2.42c3.82-3.71 9.32-5.21 14.21-7.27q63.84-26.9 127.76-53.65c4.73-1.98 6.33-1.72 11.15.53q56.54 26.32 113.16 52.46c6.75 3.11 13.01 5.61 19.71 7.98a.54.53-46.2 0 1 .02 1q-20.54 8.24-40.43 16.87c-1.15.5-2.03 1.93-2.03 3.31q-.04 8.97-.01 18.01a1.93 1.92 76.8 0 1-1.06 1.72q-36.96 18.8-73.91 37.73-6.41 3.28-12.72.13-77.21-38.52-155.46-76.4Z"/><path fill="#952780" d="M1122.29 307.56a1.49 1.49 0 0 1-.4-2.29l2.92-3.32q.36-.41.37-.95.26-12.79.37-25.54c.04-3.95-.5-6.05 3.68-7.92q46.84-20.98 72.56-31.28c6.15-2.47 10.49-.18 16.13 2.43q72.48 33.57 144.97 67.11.65.3.06.69-4.21 2.76-9.87 5.61-50.37 25.29-117.38 60.02c-3.17 1.64-6.43 3.05-9.69 4.52-3.57 1.61-7.06.34-10.26-1.33q-38.06-19.89-76.75-38.53-.45-.21-.59-.7c-1.51-5.12-.73-11-.7-16.31.02-3.64-.33-4.66-3.75-6.26q-5.9-2.75-11.67-5.95Z"/><path fill="#e0d500" d="M802.04 312.64a.49.45 13.5 0 1-.22-.33q-.14-.88.81-1.27 72.98-30.57 145.94-61.21 2.34-.98 5.54.51 76.31 35.62 152.21 70.47a.65.65 0 0 1 .01 1.17q-71.13 34.21-142.25 68.18c-3.01 1.44-3.17-.21-5.41-1.29q-73.14-35.36-146.46-70.35c-3.7-1.77-6.84-3.75-10.17-5.88Z"/><path fill="#d97b31" d="M623.07 357.07c19.31 9.38 38.85 18.35 58.09 27.83a1.43 1.43 0 0 1 .79 1.26c.17 9.42.4 15.75 1.06 28.1.4 7.49.01 17.1 0 22.35q-.05 23.82.07 47.64c.01 1.23.49 2.41-.27 3.84q-.23.43-.23.91c0 2.05 1.89 22.93-4.66 20.04q-5.39-2.39-14.65-7.33-68-36.31-135.88-72.84c-4.6-2.47-8.5-4.72-13.62-5.87a1.02 1.01 5.9 0 1-.79-.96c-.87-39.02.6-78.05-.6-117.01a.58.58 0 0 1 .79-.56q8.27 3.12 16.15 6.96 46.85 22.86 93.75 45.64Z"/><path fill="#952780" d="M1234.6 509.44q-.14-57.31-.45-114.6a.91.9-14.3 0 1 .49-.82q62.15-32.49 124.28-64.86 9.86-5.14 19.86-8.9a.75.74-10.4 0 1 1.01.69l-.13 126.89q0 .44-.39.64-67.49 34.13-135.23 67.51-4.53 2.23-8.22 3.41-1.74.56-1.59-1.26.38-4.55.37-8.7Z"/><path fill="#e0d500" d="M792.06 447.69c-1.74-.93-4.59-2.62-4.39-4.96q.13-1.51.13-1.61-.44-57.21.02-114.14a1.09 1.08-78.9 0 1 1.48-1q6.78 2.66 12.68 5.5 76.65 36.98 153.38 74.07 1.1.53 1.26 1.74.33 2.46.44 5.71 1.44 41.86.66 83.75c-.04 2.29.34 4.54-.09 7.3-.56 3.61.19 7.49.11 10.59q-.16 6.35.03 16.11c.12 5.65-6.93 2.01-8.95.93q-122.88-65.78-156.76-83.99ZM975.16 406.64a1.83 1.81 79.2 0 1 1.06-1.58q3.44-1.6 7.17-3.47 66.28-33.12 132.6-66.16 1.19-.59 3.78-.35.54.05.56.58c.16 3.51-.32 7.49-.25 10.47q1.12 48.96 2.07 97.93.19 9.94.07 19.94a.67.67 0 0 1-.44.63c-4.23 1.58-8.36 3.16-12.52 5.16q-55.79 26.88-111.62 53.68-9.63 4.62-19.17 8.62a.75.75 0 0 1-1.04-.71q.26-12.68-.09-24.7-1.19-40.99-2.33-81.99-.25-8.72.15-18.05Z"/><path fill="#d97b31" d="M791.95 465.38a1.11 1.11 0 0 1-.08 1.95q-33.72 16.52-67.74 34.12-10.21 5.29-21 9.5a.36.36 0 0 1-.49-.33q-.81-51.63-1.98-103.43-.26-11.38-.14-22.76.01-.54.49-.78.71-.36 1.52-.36.5-.01.94-.24 44.01-23.05 62.52-32.55 2.65-1.36 6.18-2.11.59-.12.58.48c-.43 34.33-.01 68.59-.52 102.89-.04 2.46 2.32 3.95 4.57 5.13q7.25 3.82 15.15 8.49Z"/><path fill="#952780" d="m1212.48 506.54-.5 13.91a.47.47 0 0 1-.79.32c-1.56-1.52-3.21-2.96-5.19-4.03-25.91-13.85-52.13-27.19-77.73-41.61a.88.88 0 0 1 .34-1.64q4.39-.46 7.99-2.85.43-.28.58-.78.55-1.78.56-3.61.15-50.75.02-101.5 0-2.62.12-4.65a1.57 1.57 0 0 1 2.27-1.31q33.77 16.72 67.21 32.5c1.81.86 3.56 2.08 5.21 3.16q.42.28.53.77.44 2.05.42 2.78-.66 29.63-.26 38.25 1.4 30.06.21 48-.91 13.52-.47 22.03.01.24-.22.23-.14-.01-.26-.01-.04 0-.04.04Z"/><path d="M1439.96 501v-2.9q0-.48-.45-.64-2.24-.78-3.26 1c-2.07 3.13-4.12 5.75-5.22 9.46-.49 1.65-4.5 14.55-5.41 14.76q-1.3.31-1.63-.38-3.21-6.85-6.21-13.51c-.78-1.73-4.2-13.13-6.78-14.3a.63.63 0 0 0-.88.69l.13.74q.08.4-.01.8l-4.57 19.74q-.28 1.2.73 1.91l3.18 2.21q.57.4.33 1.05c-.79 2.14-5.09 1.19-7.33 1.75q-.49.12-.97-.06c-3.98-1.48.73-5.29 2.09-6.35q.41-.32.53-.82.79-3.49 1.55-6.97c.92-4.17 2.83-8.85 3.67-13.52.64-3.51-1.58-7.2-3.08-10.21a.66.66 0 0 1 .59-.95c2.59-.02 7.97-.03 9.32 2.77q4.09 8.52 7.58 17.31c.85 2.14 1.24 5.18 2.7 7.54a.66.65 40 0 0 1.17-.1q2.47-6.44 5.99-12.3c2.21-3.68 2.58-7.19 3.5-11.21q.13-.53.53-.89 2.87-2.63 6.93-3.33a1.69 1.68-86.8 0 1 1.9 2.13c-2.24 7.84 1.15 19.72 2.78 27.76.58 2.88 1.94 4.98 3.35 7.46a.76.75-23.9 0 1-.42 1.08c-1.86.62-12.9 3.26-11.34-1.89 2.11-6.92.26-12.93-.99-19.83ZM1381.25 487.29q.27 12.98.27 25.95c-.01 3.23.76 5.98 1.83 8.85a1.05 1.05 0 0 1-.96 1.42l-10.44.33q-1.38.04-1.01-1.28c.94-3.44 2.1-6.5 2.06-10.12q-.15-12.72.45-25.44.02-.59-.55-.71c-6.99-1.51-8.97 1.15-12.47 6.32a.55.54-21.1 0 1-.98-.43c.96-3.87.33-8.23 6.04-7.69q2.54.24 10.4.46c5.15.14 11.63-.85 17.55-.45q.53.04.69.54.97 2.87.46 5.86-.1.57-.68.6c-2.33.09-.8-3.85-4.13-4.76q-3.91-1.07-8-.13-.54.12-.53.68Z"/><path fill="#6584c2" d="M1439.96 501q-.29-.86-.21-1.77.05-.53-.34-.88-1.38-1.23-3.16.11 1.02-1.78 3.26-1 .45.16.45.64v2.9Z"/><path d="M1271.53 600.88c-1.34.26-10.07 1.68-10.56-.63a.74.73-8.3 0 1 .66-.88q2.54-.19 4.7-1.23c3.57-1.72 7.2-9.13 7.4-12.93.52-9.66.44-16.95 5.22-26.77 6.16-12.67 17.72-14.79 30.35-18.15q1.96-.52 7.63-.28c9.45.41 20.03 3.58 28.86 6.6a1.11 1.11 0 0 1 .58 1.63q-4.21 6.88-9.46 12.93c-2.26 2.62-4.82 6.34-8.26 8.81q-.65.46-.83-.32c-1.12-4.77-.96-10.27-2.65-14.27-3.88-9.16-11.49-12.43-20.77-8.46q-.47.2-.74.62c-8.04 12.35-6.04 26.64-5.88 43.19.02 1.8-.52 3.68 2.03 3.92q5.56.54 12.35-.01c5.78-.47 6.84 6.81 1.34 6.6q-6.72-.24-13.59-.46a1.68 1.67-88.3 0 0-1.73 1.64q-.63 27.44-.41 55.32c.08 9.87 5.99 13.45 14.91 14.63q1.49.2 2.57 1.22 1.72 1.63-.57 2.24c-2.58.69-5.08 1.12-7.87 1.13q-18.02.07-36.06.07c-3.47 0-10.58-.22-13.52-2.19a.75.75 0 0 1 .28-1.36q7.13-1.33 13.72-4.36.41-.19.59-.61 2.36-5.61 2.38-10.83.11-27.25.03-54.6a2.26 2.26 0 0 0-2.7-2.21Z"/><ellipse rx="14" ry="13.71" transform="rotate(89.5 78.695 638.716)"/><path d="M530.86 574.58q-2.69.38-1.77 4.44-1.56 14.63-3.94 29.15c-1.8 10.96-3.34 24.5-5.86 36.64q-.22 1.03-.81 1.93-.27.4-.25.88c.13 4.84-.77 10.51.65 14.71q3.01 8.91 13.24 10.52 1.76.27 3.13 1.01a.74.73 50.6 0 1-.13 1.35c-10.09 3.03-23.74 1.55-34.37 1.71q-5.4.08-11.07-1.52a.78.78 0 0 1-.56-.69c-.1-1.77 12.47-3.64 15.02-7.85q4.79-7.93 5.6-13.61c3.68-25.87 9.25-51.67 11.85-77.68.29-2.98 3.84-11.16 1.02-14.56q-5.71-6.89-15.03-8.32a1.51 1.5-9.4 0 1-1.08-.77c-1.14-2.13.39-3.01 2.3-2.91q20.25 1.08 40.68.67a3.09 3.09 0 0 1 2.77 1.63c.89 1.68 1.31 4.27 2.05 6.13q13 32.9 26.02 65.79c1.14 2.89 1.7 6.47 2.97 9.46a1.14 1.14 0 0 0 2.1 0c9.5-22.46 18.11-45.07 27.85-67.31 2.01-4.57 3.44-9.33 5.12-14.09q.18-.51.68-.71 1.34-.53 3.21-.57 18.86-.46 37.97-.2a1.45 1.44 78.8 0 1 1.29.87c1.25 2.9-6.05 4.35-7.84 4.96q-4.38 1.47-4.93 6.11c-1.55 13.07.53 27.69 2.7 40.69q2.71 16.26 4.63 32.65c.91 7.78 2.82 15.57 4.19 23.39 1.61 9.23 7.88 12.02 16.22 14.05q2.91.71 1.25 2.92a1.9 1.89 14.9 0 1-1.27.73c-8.17 1.1-17.42.58-23.68.68-12.4.2-23.69.6-34.53-.25-1.53-.12-4.93-2.47-1.85-3.52 8.76-3 16.07-7.18 15.33-17.83-.81-11.73-4.53-26.89-5.84-40.62q-1.21-12.76-3.94-25.29c-1-4.63-.87-9.76-1.74-14.54a.99.99 0 0 0-1.85-.27c-5.89 11.54-9.73 23.71-14.72 35.56q-12.65 30.01-21.04 51.23-1.87 4.73-3.9 12.16-.14.53-.6.83-2.75 1.8-5.83.83-.56-.17-.74-.73-3.14-9.41-5.03-14.13-15.13-37.83-29.9-75.79c-1.66-4.27-1.69-6.82-5.74-9.92ZM1366.18 594.68l25.57.45a1.51 1.51 0 0 1 1.33.86c1.29 2.73-.97 3.63-3.22 3.94q-11.7 1.62-22.96.72a1.52 1.52 0 0 0-1.64 1.53q.28 22.99.28 45.51c0 11.25 1.21 19.9 13.25 22.02 4.82.85 11.26-3.84 14.77-6.81a.38.38 0 0 1 .62.23c1.21 7.02-9.21 13.26-14.67 15.15-3.28 1.13-14.31.61-17.97.07-14.27-2.11-20.25-12.66-19.76-26.45.41-11.25.09-22.4.23-33.76q.1-8.03-.17-16.1a.75.75 0 0 0-.74-.72l-12.53-.21a1.32 1.31-66.9 0 1-.9-2.25q5.54-5.52 11.05-9.72 3.6-2.75 5.96-5.45 8.92-10.21 18.03-20.78a1.59 1.59 0 0 1 2.79 1.04l.01 30.04q0 .68.67.69Z"/><path fill="#6584c2" d="m530.86 574.58-1.72 5.89q-.09.32-.13-.01-.08-.74.08-1.44-.92-4.06 1.77-4.44Z"/><path d="M1116.32 661.02c-.7-16.86-36.18-17.71-44.51-31.07-5.63-9.03-5.65-22.35 2.61-29.98 11.4-10.52 24.23-10.42 38.46-6.14 4.05 1.22 7.77.02 11.15-1.93a1.14 1.14 0 0 1 1.71 1.01l-.34 22.34a1.05 1.01 2.9 0 1-1.13.99c-.19-.01-1.14-.91-1.26-1.17q-6.38-13.61-20.12-18.23c-6.8-2.29-13.57-1-17.71 4.85-7.12 10.08 8.6 16.02 15.44 18.73 17.46 6.94 34.28 15.36 29.27 37.66-1.96 8.7-9.82 15.72-17.62 19.13-7.23 3.15-19.37 1.58-27.02.36q-8.51-1.36-15.57 1.21-1.56.56-1.6-1.1l-.63-28.15a1.61 1.59-29.1 0 1 .27-.92q1.57-2.3 2.84.28c6.1 12.37 19.09 30.26 35.66 25.58 5.91-1.68 10.36-7.29 10.1-13.45ZM769.34 667.42c-11.74-10.86-15.56-29.09-10.38-44.17q6.59-19.17 25.98-27.31c15-6.3 30.78-5.79 46.09-.84.58.19 1.44.13 2.08.14q.48.01.9-.22l6.83-3.81a1.21 1.2 73.8 0 1 1.79.99q.65 11.64 1.69 23.54.06.7-.35 2.84-.09.45-.45.75-1.78 1.45-2.93-.67c-5.42-9.99-14.27-20.36-25.47-22.22-12.13-2.02-24.16 5.59-28.64 16.78-8.98 22.41-1.35 58.77 30.12 56.44 9.74-.72 18.1-5.58 25.05-12.32.77-.74 1.97-1.36 2.89-1.89q.45-.26.75.17.51.73-.05 1.63c-8.78 14.23-21.77 21.1-38.43 21.76-13.88.55-26.88-1.8-37.47-11.59ZM980.24 677.34c-17.09-4.87-31.39-18.18-33.33-36.52-1.87-17.58 5.54-32.34 20.44-41.51 4.14-2.55 9.61-4.25 14.64-6.02 14.65-5.18 33.24-1 46.28 6.68q2 1.17 7.85 6.64 7.52 7.01 10.16 17.88c1.33 5.5 2.92 9.63 1.66 14.94-2.54 10.67-4.78 18.94-13.46 26.57q-14.39 12.67-33.76 13.23c-5.67.16-14.54-.2-20.48-1.89Zm-4.27-19.71c3.16 10.07 11.91 17.77 22.72 17.47 12.89-.36 19.99-14.56 21.78-25.6 2.85-17.63 2.54-49.67-21.42-53.42-7.85-1.23-15.47 3.77-19.63 10.01q-2.52 3.78-4.37 11.9c-3.17 13.87-3.6 25.19.92 39.64ZM1239.75 660.49c-26.33 34.63-98.48 20.91-92.53-31.21 1.56-13.71 11.45-25.8 23.57-31.71q24.95-12.15 51.26-.83c9.54 4.11 19.72 13.41 23.41 23.78 1.35 3.79 4.1 13.22 2.83 18.24-2.01 7.95-3.16 14.66-8.54 21.73Zm-64.51-6.86c3 10.49 7.43 18.99 19.23 21.19 18.02 3.38 26.47-17.84 26.96-31.76.5-14.27.73-34.79-13.01-43.72-12.72-8.27-28.27-.09-31.86 13.7-3.81 14.64-5.43 26.25-1.32 40.59ZM892.31 615.47a.35.35 0 0 0 .63.06c5.42-9.5 12.16-20.99 23.72-23.3 6.39-1.27 12.06.48 15.62 6 1.11 1.71 1.06 3.31.37 5.36q-2.88 8.55-4.23 17.89a.54.54 0 0 1-.93.3c-4.92-5.18-14.28-12.67-21.93-9.62-3.25 1.3-10.11 5.47-12.51 8.67q-1.23 1.64-1.42 5.92-1.11 24.64.23 40.76c.18 2.07 10.29 4.97 12.78 5.93a1.16 1.16 0 0 1-.03 2.18q-4.06 1.44-9.55 1.45-15.28.03-30.56.03c-2.57 0-9.16-.19-11.22-1.71a.97.97 0 0 1 .22-1.68c6.48-2.58 13.67-4.7 14.21-13.13.84-13.15-.1-25.89.07-44.24.07-7.56-.87-12.15-6.24-16.93-2.12-1.89-4.19-1.99-6.86-2.9q-.48-.16-.59-.65-.42-1.79.9-1.91 17.24-1.51 35.49-2.43.77-.04.77.73c.01 6.79-1.11 16.74 1.06 23.22ZM693.19 596.56q-1.07-.19-.58-1.53.17-.45.65-.54c10.79-2.01 23.06-2.43 34.38-2.56a1.55 1.54.2 0 1 1.56 1.56c-.23 20.78.47 41.92-.53 62.8-.46 9.48 3.98 14.23 12.79 16.58q.49.13.76.56.45.71.49 1.41.11 1.7-1.59 1.76-19.71.69-39.43.33c-3.48-.06-6.53-.01-9.74-1.26a1.02 1.02 0 0 1 .03-1.91c4.44-1.57 12.02-3.24 12.78-8.82.44-3.23.77-6.63.69-10.02-.46-19.37.91-31.75-.34-47.24-.41-5.15-7.61-10.33-11.92-11.12Z"/><path fill="#fff" d="M998.69 675.1c-10.81.3-19.56-7.4-22.72-17.47-4.52-14.45-4.09-25.77-.92-39.64q1.85-8.12 4.37-11.9c4.16-6.24 11.78-11.24 19.63-10.01 23.96 3.75 24.27 35.79 21.42 53.42-1.79 11.04-8.89 25.24-21.78 25.6ZM1194.47 674.82c-11.8-2.2-16.23-10.7-19.23-21.19-4.11-14.34-2.49-25.95 1.32-40.59 3.59-13.79 19.14-21.97 31.86-13.7 13.74 8.93 13.51 29.45 13.01 43.72-.49 13.92-8.94 35.14-26.96 31.76Z"/><path d="M470.11 697.72a.74.74 0 0 1-.7-.42q-1.06-2.27.67-3.9.37-.35.88-.33c14.38.74 30.75-.29 42.85-.3 242.57-.12 485.16-.06 727.75.04q82.44.04 164.89-.13c14.36-.03 30.93.93 46.5.45q.5-.01.78.4 1.35 2.05-.31 3.9-.32.35-.79.34c-7.47-.06-15.26-.52-22.35-.22-7.59.32-15.27.99-22.72.93-51.83-.46-103.74-.4-155.57-.15-90.89.43-181.71.02-272.55-.04-138.54-.09-277.1-.43-415.63.19q-19.28.08-54.56-.13c-13.55-.08-26.31-1.02-39.14-.63ZM1327.91 732.27a23.92 23.92 0 0 1-23.92 23.92 23.92 23.92 0 0 1-23.92-23.92 23.92 23.92 0 0 1 23.92-23.92 23.92 23.92 0 0 1 23.92 23.92Zm-8.044-8.42a17.94 17.65-28.5 0 0-24.188-6.951 17.94 17.65-28.5 0 0-7.344 24.071 17.94 17.65-28.5 0 0 24.188 6.951 17.94 17.65-28.5 0 0 7.344-24.071Z"/><path fill="#fff" d="M1319.866 723.85a17.94 17.65-28.5 0 1-7.344 24.071 17.94 17.65-28.5 0 1-24.188-6.95 17.94 17.65-28.5 0 1 7.344-24.072 17.94 17.65-28.5 0 1 24.188 6.95Zm-13.823 15.78a6.89 6.27 68.7 0 0 3.339-8.698 6.89 6.27 68.7 0 0-8.345-4.141 6.89 6.27 68.7 0 0-3.339 8.697 6.89 6.27 68.7 0 0 8.345 4.141Z"/><path d="M1161.01 899.54c-.8 3.34-1.71 6.27-3.02 9.49q-7.04 17.36-12.77 35.17c-1.88 5.84-2.4 16.85 1.72 21.88q3.57 4.38 8.06 7.74c4.46 3.33 17.59 5.14 15.91 12.15a2.17 2.17 0 0 1-2.1 1.66l-82.12.29q-.74 0-.73-.74l.12-6.57q.02-.63.64-.74c27.07-4.99 38.96-33.8 48.15-58.17q38.16-101.26 76.48-202.47c.73-1.92 1.46-2.08 3.4-2.01q15.75.62 31.98-.01a1 .98 77.9 0 1 .96.64q39.73 104.1 79.44 208.08c5.23 13.69 10.39 24.4 17.58 35.86 7.33 11.68 18.16 16.22 31.55 18.96 2.05.42 1.05 4.6.5 6.01q-.19.48-.7.59-1.95.4-2.56.4-61.3 0-124.7.02a.8.8 0 0 1-.8-.8v-5.52q0-.55.49-.82c1.22-.65 2.93-.67 3.95-.96 8.35-2.43 23.43-5.51 25.64-15.42 1.79-8.08-.89-14.57-4.33-23.75q-7.82-20.87-15.7-41.69a.86.85 79.7 0 0-.78-.55q-43.27-.05-86.46.03-3.89.01-9.08.61-.58.07-.72.64ZM1245 880.8c1.52.01 3.78.36 5.66.37q.65 0 .42-.61-18.42-48.25-36.16-96.74c-1.37-3.76-3.09-7.1-4.89-10.59q-.96-1.87-1.56.15-.69 2.38-1.91 5.8-17.83 50.05-36.08 100.6a.83.82-80.2 0 0 .78 1.11q36.66-.28 73.74-.09ZM682.93 901.32q1.96-3.31 3.36-7.01 21.9-57.77 43.61-115.6c7.94-21.14 8.93-39.73-16.57-46.74-1.8-.49-4.06-.66-6.15-1.11q-.59-.12-.64-.74l-.38-5.92q-.05-.7.65-.7h84.42a1.41 1.4 83.9 0 1 1.37 1.11c.64 2.91-.19 4.87-3.06 6.09q-8.18 3.44-14.72 6.87c-15.58 8.18-25.16 35.68-32.17 53.86-25.66 66.58-51.73 133.08-76.39 200.03q-.19.51-.69.71-3.13 1.23-6.51.67a1.54 1.53 83.8 0 1-1.18-.96q-41.87-105.76-84.1-211.29c-8.42-21.05-18.39-47.67-45.18-49.34a1.29 1.29 0 0 1-1.21-1.21l-.39-6.07q-.04-.56.52-.66c1.59-.28 3.47.17 4.66.17q57.63.07 115.26-.02.64 0 .62.63l-.2 6.28q-.02.61-.63.65c-13.67.84-26.28 10.7-21.62 25.92q1.76 5.75 5.06 14.13 25.65 65.12 51.6 130.2a.37.37 0 0 0 .66.05ZM988.48 848.9c3.5 1.12 7.7 1.32 11.27 2.43 18.7 5.83 38.09 12.88 49.99 29.5 9.12 12.74 11.57 25.57 11.19 41.24-.77 32.11-27.63 56.09-57.43 61.99-11.18 2.21-21.56 3.57-33.49 3.71-46.46.53-92.94-.67-139.39.14q-6.55.12-13.89-.29a.81.8-85 0 1-.75-.9l.67-5.64q.2-1.69 1.87-1.95c20.55-3.25 29.81-10.93 29.77-32.61q-.19-90.01.16-180.02c.04-8.88-.27-20.01-7.54-26.38-6.89-6.02-14.27-7.45-22.91-8.75q-.54-.09-.87-.53-1.18-1.6-1.11-3.64.02-.51-.16-.99-.6-1.54.56-2.36.4-.27.88-.28 72.48-.14 144.95-.11c12.09.01 24.15 2.74 35.79 5.8 23.15 6.09 45.06 23.32 46.85 48.3 1.19 16.57-1.48 32.56-13.55 44.92-12.81 13.12-26.63 17.54-42.95 24.46q-2.59 1.1.09 1.96Zm-82.27-110.92v105.36a1.45 1.45 0 0 0 1.45 1.45h24.11a51.94 50.38 0 0 0 51.94-50.38v-7.5a51.94 50.38 0 0 0-51.94-50.38h-24.11a1.45 1.45 0 0 0-1.45 1.45Zm11.08 230.08c7.1 4.52 17.96 5.82 25.67 6.19q5.02.23 12.01-.98c17.73-3.05 30.77-11.31 38.4-27.94q10.78-23.46 3.11-48.28c-8.47-27.43-30.89-38.24-57.98-39.03q-14.37-.41-28.75-.14-1.52.03-1.74.13a2.95 1.83-19.4 0 0-1.78 2.21c.48 7.28.04 15.87.03 21.25q-.04 29.86.21 59.71c.09 11.3.69 20.43 10.82 26.88Z"/><ellipse rx="6.89" ry="6.27" transform="rotate(68.7 115.353 1320.275)"/><path fill="#fff" d="M906.21 737.98a1.45 1.45 0 0 1 1.45-1.45h24.11a51.94 50.38 0 0 1 51.94 50.38v7.5a51.94 50.38 0 0 1-51.94 50.38h-24.11a1.45 1.45 0 0 1-1.45-1.45V737.98ZM1245 880.8q-37.08-.19-73.74.09a.83.82-80.2 0 1-.78-1.11q18.25-50.55 36.08-100.6 1.22-3.42 1.91-5.8.6-2.02 1.56-.15c1.8 3.49 3.52 6.83 4.89 10.59q17.74 48.49 36.16 96.74.23.61-.42.61c-1.88-.01-4.14-.36-5.66-.37ZM917.29 968.06c-10.13-6.45-10.73-15.58-10.82-26.88q-.25-29.85-.21-59.71c.01-5.38.45-13.97-.03-21.25a2.95 1.83-19.4 0 1 1.78-2.21q.22-.1 1.74-.13 14.38-.27 28.75.14c27.09.79 49.51 11.6 57.98 39.03q7.67 24.82-3.11 48.28c-7.63 16.63-20.67 24.89-38.4 27.94q-6.99 1.21-12.01.98c-7.71-.37-18.57-1.67-25.67-6.19Z"/></svg>